<?xml version="1.0" standalone="no"?>
<!DOCTYPE svg PUBLIC "-//W3C//DTD SVG 20010904//EN"
 "http://www.w3.org/TR/2001/REC-SVG-20010904/DTD/svg10.dtd">
<svg version="1.0" xmlns="http://www.w3.org/2000/svg"
 width="260.000000pt" height="260.000000pt" viewBox="0 0 260.000000 260.000000"
 preserveAspectRatio="xMidYMid meet">
<metadata>
Created by potrace 1.11, written by Peter Selinger 2001-2013
</metadata>
<g transform="translate(0.000000,260.000000) scale(0.100000,-0.100000)"
fill="#000000" stroke="none">
<path d="M1088 2275 c-101 -16 -317 -74 -410 -108 -309 -117 -543 -369 -633
-682 -40 -138 -35 -259 15 -386 64 -162 196 -263 415 -318 35 -9 44 -18 68
-65 36 -69 111 -140 185 -174 68 -32 180 -40 256 -19 l50 13 42 -42 c48 -49
124 -72 183 -57 32 8 37 6 77 -37 84 -90 216 -134 378 -128 88 3 110 8 169 35
88 42 168 121 209 209 17 36 38 68 47 70 62 18 166 81 207 127 72 81 124 202
124 291 0 23 9 66 21 96 32 83 23 210 -21 305 -17 39 -38 99 -46 133 -19 90
-54 160 -110 224 -27 31 -64 81 -82 111 -38 66 -115 134 -192 173 -30 15 -71
42 -91 59 -85 76 -188 118 -342 140 -56 8 -120 20 -142 25 -70 18 -282 21
-377 5z m923 -374 c52 -52 36 -98 -58 -161 -74 -50 -103 -89 -103 -140 0 -40
14 -64 76 -131 61 -66 78 -104 78 -174 1 -47 -6 -74 -30 -125 -37 -79 -126
-177 -187 -208 -75 -37 -147 -24 -166 30 -16 45 9 91 94 179 70 71 75 80 75
119 0 37 -9 55 -61 127 -104 143 -117 198 -68 295 26 51 25 52 -23 18 -23 -17
-65 -37 -94 -46 l-51 -15 -8 -92 c-5 -51 -9 -193 -10 -317 -1 -124 -5 -234
-10 -245 -33 -81 -112 -87 -152 -12 -16 28 -18 70 -21 340 l-4 307 -53 0 c-29
0 -65 3 -81 6 l-29 5 -1 -59 c-1 -63 -28 -124 -60 -136 -30 -12 -82 -6 -104
12 -17 14 -24 33 -30 89 -9 85 -13 93 -50 93 -50 0 -88 -71 -110 -210 -28
-183 9 -310 92 -310 18 0 62 9 96 20 113 35 152 21 152 -57 0 -35 -6 -50 -36
-82 -108 -121 -301 -122 -405 -3 -128 146 -139 444 -25 677 47 96 95 148 168
184 108 54 203 33 259 -58 l32 -51 28 24 c63 54 246 98 406 100 88 1 105 -2
130 -20 19 -14 29 -32 31 -53 l3 -33 55 52 c98 93 199 117 255 61z"/>
</g>
</svg>
